<svg width="24" height="24" viewBox="0 0 24 24" fill="none" xmlns="http://www.w3.org/2000/svg">
<path d="M12.7584 15.7972C12.8997 15.4339 12.8089 15.0201 12.5263 14.7375L10.4168 12.6583L10.4471 12.628C12.2033 10.67 13.4549 8.4192 14.1917 6.03723H16.1497C16.6947 6.03723 17.1489 5.58304 17.1489 5.03802V5.01783C17.1489 4.4728 16.6947 4.01862 16.1497 4.01862H10.0838V3.00931C10.0838 2.45419 9.62958 2 9.07446 2C8.51934 2 8.06516 2.45419 8.06516 3.00931V4.01862H1.99921C1.45419 4.01862 1 4.4728 1 5.01783C1 5.57295 1.45419 6.01705 1.99921 6.01705H12.274C11.5977 7.9751 10.5279 9.82214 9.07446 11.437C8.25692 10.5387 7.57059 9.55972 6.99529 8.53022C6.8338 8.23752 6.5411 8.05585 6.20803 8.05585C5.51161 8.05585 5.06751 8.81283 5.41068 9.41842C6.04654 10.5589 6.82371 11.649 7.73208 12.6583L3.32141 17.0084C2.91769 17.402 2.91769 18.048 3.32141 18.4416C3.71504 18.8353 4.3509 18.8353 4.75463 18.4416L9.07446 14.1117L11.1133 16.1505C11.628 16.6652 12.5061 16.4735 12.7584 15.7972ZM17.6536 10.0745C17.048 10.0745 16.503 10.4479 16.291 11.0232L12.5869 20.9144C12.3446 21.5301 12.8089 22.1862 13.465 22.1862C13.8586 22.1862 14.2118 21.9439 14.3531 21.5705L15.2514 19.1582H20.0456L20.954 21.5705C21.0953 21.9338 21.4486 22.1862 21.8422 22.1862C22.4983 22.1862 22.9625 21.5301 22.7304 20.9144L19.0262 11.0232C18.8042 10.4479 18.2592 10.0745 17.6536 10.0745ZM16.0185 17.1396L17.6536 12.7693L19.2887 17.1396H16.0185Z" fill="#4C81DD"/>
</svg>
