<svg width="65" height="64" viewBox="0 0 65 64" fill="none" xmlns="http://www.w3.org/2000/svg">
<path d="M64 19.5441C64 17.807 62.576 16.3857 60.8354 16.3857H38.6836C36.9431 16.3857 35.519 17.807 35.519 19.5441C35.519 21.2813 36.9431 22.7026 38.6836 22.7026H60.8354C62.576 22.7026 64 21.2813 64 19.5441ZM35.519 44.8117C35.519 46.5489 36.9431 47.9702 38.6836 47.9702H60.8354C62.576 47.9702 64 46.5489 64 44.8117C64 43.0746 62.576 41.6533 60.8354 41.6533H38.6836C36.9431 41.6533 35.519 43.0746 35.519 44.8117ZM27.5127 8.90016C28.7469 10.132 28.7469 12.1218 27.5127 13.3536L14.1266 26.777C12.8925 28.0088 10.8988 28.0088 9.63297 26.777L2.92411 20.0495C2.33241 19.4589 2 18.658 2 17.8228C2 17.4092 2.08161 16.9998 2.24017 16.6177C2.39873 16.2356 2.63113 15.8885 2.92411 15.5961C3.2171 15.3037 3.56491 15.0717 3.94771 14.9134C4.33051 14.7552 4.74079 14.6737 5.15512 14.6737C5.99192 14.6737 6.79444 15.0055 7.38614 15.5961L11.8798 20.0811L23.0823 8.90016C24.2849 7.69995 26.3102 7.69995 27.5127 8.90016ZM27.5443 34.1993C28.7785 35.4311 28.7785 37.421 27.5443 38.6527L14.1583 52.0762C12.9241 53.3079 10.9304 53.3079 9.66461 52.0762L2.92411 45.3171C2.63113 45.0247 2.39873 44.6775 2.24017 44.2955C2.08161 43.9134 2 43.5039 2 43.0904C2 42.6768 2.08161 42.2673 2.24017 41.8853C2.39873 41.5032 2.63113 41.1561 2.92411 40.8637C3.2171 40.5712 3.56491 40.3393 3.94771 40.181C4.33051 40.0228 4.74079 39.9413 5.15512 39.9413C5.56946 39.9413 5.97974 40.0228 6.36254 40.181C6.74534 40.3393 7.09316 40.5712 7.38614 40.8637L11.8798 45.3487L23.0823 34.1677C24.2849 32.9675 26.3102 32.9675 27.5443 34.1993Z" fill="#4C81DD"/>
</svg>
