<svg width="24" height="24" viewBox="0 0 24 24" fill="none" xmlns="http://www.w3.org/2000/svg">
<rect x="2" y="4" width="20" height="16" rx="3" stroke="#4C81DD" stroke-width="2"/>
<path fill-rule="evenodd" clip-rule="evenodd" d="M19.5 8C19.5 8.27614 19.2761 8.5 19 8.5H17C16.7239 8.5 16.5 8.27614 16.5 8C16.5 7.72386 16.7239 7.5 17 7.5H19C19.2761 7.5 19.5 7.72386 19.5 8Z" fill="#4C81DD"/>
<path fill-rule="evenodd" clip-rule="evenodd" d="M19.5 10C19.5 10.2761 19.2761 10.5 19 10.5H17C16.7239 10.5 16.5 10.2761 16.5 10C16.5 9.72386 16.7239 9.5 17 9.5H19C19.2761 9.5 19.5 9.72386 19.5 10Z" fill="#4C81DD"/>
<path fill-rule="evenodd" clip-rule="evenodd" d="M9 17C9 17.2761 8.77614 17.5 8.5 17.5H5.5C5.22386 17.5 5 17.2761 5 17C5 16.7239 5.22386 16.5 5.5 16.5H8.5C8.77614 16.5 9 16.7239 9 17Z" fill="#4C81DD"/>
<path d="M14 5V19.5" stroke="#4C81DD" stroke-width="2"/>
<rect x="5.5" y="7.5" width="5" height="6" rx="0.5" stroke="#4C81DD"/>
</svg>
