<svg width="24" height="24" viewBox="0 0 24 24" fill="none" xmlns="http://www.w3.org/2000/svg">
<path d="M19.38 8H18.21V5.71429C18.21 2.56 15.5892 0 12.36 0C9.1308 0 6.51 2.56 6.51 5.71429H8.85C8.85 3.81714 10.4178 2.28571 12.36 2.28571C14.3022 2.28571 15.87 3.81714 15.87 5.71429V8H5.34C4.053 8 3 9.02857 3 10.2857V21.7143C3 22.9714 4.053 24 5.34 24H19.38C20.667 24 21.72 22.9714 21.72 21.7143V10.2857C21.72 9.02857 20.667 8 19.38 8ZM19.38 21.7143H5.34V10.2857H19.38V21.7143ZM12.36 18.2857C13.647 18.2857 14.7 17.2571 14.7 16C14.7 14.7429 13.647 13.7143 12.36 13.7143C11.073 13.7143 10.02 14.7429 10.02 16C10.02 17.2571 11.073 18.2857 12.36 18.2857Z" fill="#4C81DD"/>
</svg>
