<svg width="24" height="24" viewBox="0 0 24 24" fill="none" xmlns="http://www.w3.org/2000/svg">
<path fill-rule="evenodd" clip-rule="evenodd" d="M2.58333 2H20.6667C22.1004 2 23.25 3.1625 23.25 4.58333V20.0833C23.25 21.5042 22.0875 22.6667 20.6667 22.6667H2.58333C1.14958 22.6667 0 21.5042 0 20.0833V4.58333C0 3.1625 1.14958 2 2.58333 2ZM2.58333 20.0833H20.6667V7.16667H2.58333V20.0833ZM3.875 5.55078C4.41003 5.55078 4.84375 5.11706 4.84375 4.58203C4.84375 4.04701 4.41003 3.61328 3.875 3.61328C3.33997 3.61328 2.90625 4.04701 2.90625 4.58203C2.90625 5.11706 3.33997 5.55078 3.875 5.55078ZM7.75 4.58203C7.75 5.11706 7.31628 5.55078 6.78125 5.55078C6.24622 5.55078 5.8125 5.11706 5.8125 4.58203C5.8125 4.04701 6.24622 3.61328 6.78125 3.61328C7.31628 3.61328 7.75 4.04701 7.75 4.58203ZM9.6875 5.55078C10.2225 5.55078 10.6562 5.11706 10.6562 4.58203C10.6562 4.04701 10.2225 3.61328 9.6875 3.61328C9.15247 3.61328 8.71875 4.04701 8.71875 4.58203C8.71875 5.11706 9.15247 5.55078 9.6875 5.55078Z" fill="#4C81DD"/>
<path d="M6 10L10.2 13.5L6 17" stroke="#4C81DD" stroke-width="1.4"/>
<line x1="12.2988" y1="16.3" x2="17.8988" y2="16.3" stroke="#4C81DD" stroke-width="1.4"/>
</svg>
