<svg width="24" height="24" viewBox="0 0 24 24" fill="none" xmlns="http://www.w3.org/2000/svg">
<g clip-path="url(#clip0_1545_5280)">
<path fill-rule="evenodd" clip-rule="evenodd" d="M15.2957 10.1475C15.1408 10.2301 14.936 10.4928 14.7703 11.122C14.6474 11.5886 14.5878 12.0781 14.5301 12.5519C14.5137 12.6871 14.4974 12.8209 14.4798 12.9526C14.4709 13.0193 14.4616 13.0929 14.4515 13.1723C14.3749 13.7777 14.2558 14.7179 13.9547 15.5123C13.7809 15.9708 13.5161 16.4701 13.0884 16.8473C12.6313 17.2504 12.0416 17.4652 11.3525 17.4081L11.3525 17.4081C9.68676 17.2701 8.83925 16.0232 8.28271 15.1987C8.25574 15.1588 8.22944 15.1197 8.20374 15.0816C7.93315 14.6798 7.72797 14.3751 7.49508 14.1359C7.26497 13.8995 7.06873 13.7942 6.84557 13.766L6.84556 13.766C6.66598 13.7434 6.62295 13.7875 6.59092 13.8204L6.58986 13.8215C6.51432 13.8989 6.40297 14.0877 6.31981 14.4663C6.15409 15.2206 6.19094 16.2907 6.30971 17.2945C6.37116 17.8138 6.00313 18.285 5.4877 18.3469C4.97227 18.4088 4.50462 18.038 4.44318 17.5187C4.31909 16.47 4.24733 15.1364 4.48448 14.057C4.60274 13.5186 4.82069 12.9331 5.24947 12.4937C5.72163 12.0099 6.35898 11.7961 7.07891 11.8868L6.96224 12.8264L7.07891 11.8868C7.84574 11.9835 8.41006 12.371 8.83716 12.8098C9.19697 13.1795 9.50062 13.6323 9.75085 14.0054C9.78032 14.0493 9.80906 14.0922 9.83706 14.1337C10.4335 15.0172 10.8296 15.4645 11.5065 15.5206C11.6856 15.5354 11.7737 15.4898 11.8503 15.4223C11.9562 15.3288 12.0809 15.1472 12.1986 14.8366C12.4132 14.2707 12.5033 13.5748 12.585 12.9433C12.5957 12.8611 12.6062 12.7799 12.6168 12.7003C12.6289 12.6097 12.6415 12.5054 12.6553 12.3907C12.7133 11.9091 12.7934 11.2439 12.9534 10.6363C13.1437 9.91352 13.5218 8.95045 14.4168 8.47346L14.4168 8.47344C15.4287 7.93416 16.3635 8.49815 16.7951 8.8334C17.0433 9.02614 17.2431 9.23078 17.374 9.37387C17.4299 9.43493 17.4767 9.48867 17.506 9.52249C17.6869 9.69507 17.7997 9.9393 17.7997 10.2101C17.7997 10.2934 17.7905 10.5441 17.6053 10.7873C17.3731 11.0922 17.0398 11.1691 16.8088 11.1567C16.6202 11.1465 16.4844 11.0812 16.4371 11.0574C16.376 11.0265 16.3309 10.9953 16.3071 10.9781C16.2327 10.924 16.1791 10.8671 16.1734 10.861L16.1729 10.8605C16.1472 10.8338 16.1208 10.8034 16.1089 10.7897L16.1069 10.7875C16.1023 10.7821 16.0975 10.7767 16.0928 10.7712C16.0635 10.7375 16.0318 10.7011 15.9919 10.6575C15.8985 10.5554 15.7791 10.4356 15.6475 10.3333C15.5099 10.2265 15.4016 10.1724 15.3324 10.1536C15.3136 10.1484 15.3022 10.1472 15.297 10.1469M16.2225 9.51409C16.2608 9.47825 16.3008 9.44701 16.3416 9.41993C16.2994 9.4481 16.2596 9.47961 16.2225 9.51409Z" fill="#4C81DD"/>
<path d="M18.7598 10.6562L20.6843 16.4298L21.9673 13.8638L24.5333 12.5807L18.7598 10.6562Z" fill="#4C81DD"/>
<path fill-rule="evenodd" clip-rule="evenodd" d="M20.635 2H2.57937C1.14782 2 0 3.16072 0 4.57937V20.0556C0 21.4743 1.14782 22.635 2.57937 22.635H20.635C22.0537 22.635 23.2144 21.4743 23.2144 20.0556V17.5674H20.635V20.0556H2.57937V6.30944H11.6072H20.635V9.35742H23.2144V4.57937C23.2144 3.16072 22.0666 2 20.635 2ZM4.83687 4.57859C4.83687 5.1128 4.40382 5.54586 3.86961 5.54586C3.3354 5.54586 2.90234 5.1128 2.90234 4.57859C2.90234 4.04439 3.3354 3.61133 3.86961 3.61133C4.40382 3.61133 4.83687 4.04439 4.83687 4.57859ZM6.77 5.54586C7.30421 5.54586 7.73727 5.1128 7.73727 4.57859C7.73727 4.04439 7.30421 3.61133 6.77 3.61133C6.23579 3.61133 5.80273 4.04439 5.80273 4.57859C5.80273 5.1128 6.23579 5.54586 6.77 5.54586ZM10.6396 4.57859C10.6396 5.1128 10.2065 5.54586 9.67234 5.54586C9.13814 5.54586 8.70508 5.1128 8.70508 4.57859C8.70508 4.04439 9.13814 3.61133 9.67234 3.61133C10.2065 3.61133 10.6396 4.04439 10.6396 4.57859Z" fill="#4C81DD"/>
</g>
<defs>
<clipPath id="clip0_1545_5280">
<rect width="24" height="24" fill="white"/>
</clipPath>
</defs>
</svg>
