<svg width="24" height="24" viewBox="0 0 24 24" fill="none" xmlns="http://www.w3.org/2000/svg">
<g clip-path="url(#clip0_1545_5253)">
<path d="M9.34988 11.9302C11.8169 11.9302 13.815 9.93209 13.815 7.46512C13.815 4.99814 11.8169 3 9.34988 3C6.88291 3 4.88477 4.99814 4.88477 7.46512C4.88477 9.93209 6.88291 11.9302 9.34988 11.9302Z" fill="#4C81DD"/>
<path d="M14.4414 17.8609L17.7902 21.0004C19.5734 18.2285 20.9036 16.7503 23.6507 14.3027" stroke="#4C81DD" stroke-width="1.30233"/>
<path fill-rule="evenodd" clip-rule="evenodd" d="M0.419922 17.51C0.419922 14.5407 6.36969 13.0449 9.35015 13.0449C11.4009 13.0449 14.8575 13.7531 16.8143 15.1622C16.6543 15.1453 16.4918 15.1367 16.3273 15.1367C13.7842 15.1367 11.7227 17.1983 11.7227 19.7414C11.7227 20.1268 11.77 20.5011 11.8592 20.8589H0.419922V17.51Z" fill="#4C81DD"/>
</g>
<defs>
<clipPath id="clip0_1545_5253">
<rect width="24" height="24" fill="white"/>
</clipPath>
</defs>
</svg>
