<svg width="24" height="24" viewBox="0 0 24 24" fill="none" xmlns="http://www.w3.org/2000/svg">
<path fill-rule="evenodd" clip-rule="evenodd" d="M5.5 0C3.567 0 2 1.567 2 3.5C2 5.433 3.567 7 5.5 7H19.5C21.433 7 23 5.433 23 3.5C23 1.567 21.433 0 19.5 0H5.5ZM6 5.5C7.10457 5.5 8 4.60457 8 3.5C8 2.39543 7.10457 1.5 6 1.5C4.89543 1.5 4 2.39543 4 3.5C4 4.60457 4.89543 5.5 6 5.5Z" fill="#4C81DD"/>
<path fill-rule="evenodd" clip-rule="evenodd" d="M5.5 8C3.567 8 2 9.567 2 11.5C2 13.433 3.567 15 5.5 15H19.5C21.433 15 23 13.433 23 11.5C23 9.567 21.433 8 19.5 8H5.5ZM6 13.5C7.10457 13.5 8 12.6046 8 11.5C8 10.3954 7.10457 9.5 6 9.5C4.89543 9.5 4 10.3954 4 11.5C4 12.6046 4.89543 13.5 6 13.5Z" fill="#4C81DD"/>
<path fill-rule="evenodd" clip-rule="evenodd" d="M5.5 16C3.567 16 2 17.567 2 19.5C2 21.433 3.567 23 5.5 23H19.5C21.433 23 23 21.433 23 19.5C23 17.567 21.433 16 19.5 16H5.5ZM6 21.5C7.10457 21.5 8 20.6046 8 19.5C8 18.3954 7.10457 17.5 6 17.5C4.89543 17.5 4 18.3954 4 19.5C4 20.6046 4.89543 21.5 6 21.5Z" fill="#4C81DD"/>
</svg>
