<svg width="179" height="29" viewBox="0 0 179 29" fill="none" xmlns="http://www.w3.org/2000/svg">
<path d="M53.12 20.2C51.6533 20.2 50.3933 19.9067 49.34 19.32C48.3 18.72 47.5 17.88 46.94 16.8C46.38 15.7067 46.1 14.42 46.1 12.94C46.1 11.46 46.38 10.18 46.94 9.1C47.5 8.02 48.3 7.18667 49.34 6.6C50.3933 6 51.6533 5.7 53.12 5.7C54.1067 5.7 54.9933 5.84 55.78 6.12C56.58 6.4 57.2667 6.81333 57.84 7.36L57 9.4C56.3733 8.89333 55.7667 8.53333 55.18 8.32C54.6067 8.09333 53.9467 7.98 53.2 7.98C51.7733 7.98 50.68 8.41333 49.92 9.28C49.1733 10.1333 48.8 11.3533 48.8 12.94C48.8 14.5267 49.1733 15.7533 49.92 16.62C50.68 17.4867 51.7733 17.92 53.2 17.92C53.9467 17.92 54.6067 17.8133 55.18 17.6C55.7667 17.3733 56.3733 17 57 16.48L57.84 18.52C57.2667 19.0533 56.58 19.4667 55.78 19.76C54.9933 20.0533 54.1067 20.2 53.12 20.2ZM63.5083 20.2C62.4683 20.2 61.5683 19.9867 60.8083 19.56C60.0483 19.1333 59.4549 18.5267 59.0283 17.74C58.6149 16.9533 58.4083 16.02 58.4083 14.94C58.4083 13.86 58.6149 12.9333 59.0283 12.16C59.4549 11.3733 60.0483 10.7667 60.8083 10.34C61.5683 9.91333 62.4683 9.7 63.5083 9.7C64.5483 9.7 65.4483 9.91333 66.2083 10.34C66.9816 10.7667 67.5749 11.3733 67.9883 12.16C68.4149 12.9333 68.6283 13.86 68.6283 14.94C68.6283 16.02 68.4149 16.9533 67.9883 17.74C67.5749 18.5267 66.9816 19.1333 66.2083 19.56C65.4483 19.9867 64.5483 20.2 63.5083 20.2ZM63.5083 18.28C64.2949 18.28 64.9216 18.0067 65.3883 17.46C65.8549 16.9 66.0883 16.06 66.0883 14.94C66.0883 13.82 65.8549 12.9867 65.3883 12.44C64.9216 11.8933 64.2949 11.62 63.5083 11.62C62.7216 11.62 62.0949 11.8933 61.6283 12.44C61.1616 12.9867 60.9283 13.82 60.9283 14.94C60.9283 16.06 61.1616 16.9 61.6283 17.46C62.0949 18.0067 62.7216 18.28 63.5083 18.28ZM74.3042 20.2C73.4242 20.2 72.6442 19.9933 71.9642 19.58C71.2976 19.1533 70.7776 18.5467 70.4042 17.76C70.0309 16.9733 69.8442 16.0333 69.8442 14.94C69.8442 13.8467 70.0309 12.9133 70.4042 12.14C70.7776 11.3533 71.2976 10.7533 71.9642 10.34C72.6442 9.91333 73.4242 9.7 74.3042 9.7C75.1442 9.7 75.8842 9.90667 76.5242 10.32C77.1776 10.72 77.6109 11.2667 77.8242 11.96H77.5642V5.28H80.0642V20H77.6042V17.86H77.8442C77.6309 18.58 77.1976 19.1533 76.5442 19.58C75.9042 19.9933 75.1576 20.2 74.3042 20.2ZM75.0042 18.28C75.7909 18.28 76.4242 18.0067 76.9042 17.46C77.3842 16.9 77.6242 16.06 77.6242 14.94C77.6242 13.82 77.3842 12.9867 76.9042 12.44C76.4242 11.8933 75.7909 11.62 75.0042 11.62C74.2176 11.62 73.5776 11.8933 73.0842 12.44C72.6042 12.9867 72.3642 13.82 72.3642 14.94C72.3642 16.06 72.6042 16.9 73.0842 17.46C73.5776 18.0067 74.2176 18.28 75.0042 18.28ZM87.2666 20.2C85.5732 20.2 84.2466 19.7333 83.2866 18.8C82.3266 17.8667 81.8466 16.5867 81.8466 14.96C81.8466 13.9067 82.0532 12.9867 82.4666 12.2C82.8799 11.4133 83.4532 10.8 84.1866 10.36C84.9332 9.92 85.7999 9.7 86.7866 9.7C87.7599 9.7 88.5732 9.90667 89.2266 10.32C89.8799 10.7333 90.3732 11.3133 90.7066 12.06C91.0532 12.8067 91.2266 13.68 91.2266 14.68V15.34H83.8666V14.02H89.4466L89.1066 14.3C89.1066 13.3667 88.9066 12.6533 88.5066 12.16C88.1199 11.6667 87.5532 11.42 86.8066 11.42C85.9799 11.42 85.3399 11.7133 84.8866 12.3C84.4466 12.8867 84.2266 13.7067 84.2266 14.76V15.02C84.2266 16.1133 84.4932 16.9333 85.0266 17.48C85.5732 18.0133 86.3399 18.28 87.3266 18.28C87.8999 18.28 88.4332 18.2067 88.9266 18.06C89.4332 17.9 89.9132 17.6467 90.3666 17.3L91.1066 18.98C90.6266 19.3667 90.0532 19.6667 89.3866 19.88C88.7199 20.0933 88.0132 20.2 87.2666 20.2ZM93.1436 20V5.9H95.7236V20H93.1436ZM98.2272 20V12.42C98.2272 12.0067 98.2139 11.5867 98.1872 11.16C98.1605 10.7333 98.1205 10.3133 98.0672 9.9H100.487L100.687 11.9H100.447C100.767 11.1933 101.241 10.6533 101.867 10.28C102.494 9.89333 103.221 9.7 104.047 9.7C105.234 9.7 106.127 10.0333 106.727 10.7C107.327 11.3667 107.627 12.4067 107.627 13.82V20H105.127V13.94C105.127 13.1267 104.967 12.5467 104.647 12.2C104.341 11.84 103.874 11.66 103.247 11.66C102.474 11.66 101.861 11.9 101.407 12.38C100.954 12.86 100.727 13.5 100.727 14.3V20H98.2272ZM114.198 20.2C112.998 20.2 112.091 19.8867 111.478 19.26C110.865 18.6333 110.558 17.6933 110.558 16.44V11.78H108.618V9.9H110.558V7.32L113.058 6.68V9.9H115.758V11.78H113.058V16.28C113.058 16.9733 113.191 17.46 113.458 17.74C113.725 18.02 114.091 18.16 114.558 18.16C114.811 18.16 115.025 18.14 115.198 18.1C115.385 18.06 115.565 18.0067 115.738 17.94V19.92C115.511 20.0133 115.258 20.08 114.978 20.12C114.711 20.1733 114.451 20.2 114.198 20.2ZM121.838 20.2C120.145 20.2 118.818 19.7333 117.858 18.8C116.898 17.8667 116.418 16.5867 116.418 14.96C116.418 13.9067 116.625 12.9867 117.038 12.2C117.452 11.4133 118.025 10.8 118.758 10.36C119.505 9.92 120.372 9.7 121.358 9.7C122.332 9.7 123.145 9.90667 123.798 10.32C124.452 10.7333 124.945 11.3133 125.278 12.06C125.625 12.8067 125.798 13.68 125.798 14.68V15.34H118.438V14.02H124.018L123.678 14.3C123.678 13.3667 123.478 12.6533 123.078 12.16C122.692 11.6667 122.125 11.42 121.378 11.42C120.552 11.42 119.912 11.7133 119.458 12.3C119.018 12.8867 118.798 13.7067 118.798 14.76V15.02C118.798 16.1133 119.065 16.9333 119.598 17.48C120.145 18.0133 120.912 18.28 121.898 18.28C122.472 18.28 123.005 18.2067 123.498 18.06C124.005 17.9 124.485 17.6467 124.938 17.3L125.678 18.98C125.198 19.3667 124.625 19.6667 123.958 19.88C123.292 20.0933 122.585 20.2 121.838 20.2ZM127.495 20V12.48C127.495 12.0533 127.482 11.62 127.455 11.18C127.442 10.74 127.409 10.3133 127.355 9.9H129.775L130.055 12.66H129.655C129.789 11.9933 130.009 11.44 130.315 11C130.635 10.56 131.022 10.2333 131.475 10.02C131.929 9.80667 132.422 9.7 132.955 9.7C133.195 9.7 133.389 9.71333 133.535 9.74C133.682 9.75333 133.829 9.78667 133.975 9.84L133.955 12.04C133.702 11.9333 133.482 11.8667 133.295 11.84C133.122 11.8133 132.902 11.8 132.635 11.8C132.062 11.8 131.575 11.92 131.175 12.16C130.789 12.4 130.495 12.7333 130.295 13.16C130.109 13.5867 130.015 14.0733 130.015 14.62V20H127.495ZM138.533 20L134.173 9.9H136.833L139.993 17.8H139.373L142.613 9.9H145.113L140.733 20H138.533ZM146.051 20V9.9H148.551V20H146.051ZM145.911 8V5.56H148.691V8H145.911ZM155.746 20.2C154.053 20.2 152.726 19.7333 151.766 18.8C150.806 17.8667 150.326 16.5867 150.326 14.96C150.326 13.9067 150.533 12.9867 150.946 12.2C151.36 11.4133 151.933 10.8 152.666 10.36C153.413 9.92 154.28 9.7 155.266 9.7C156.24 9.7 157.053 9.90667 157.706 10.32C158.36 10.7333 158.853 11.3133 159.186 12.06C159.533 12.8067 159.706 13.68 159.706 14.68V15.34H152.346V14.02H157.926L157.586 14.3C157.586 13.3667 157.386 12.6533 156.986 12.16C156.6 11.6667 156.033 11.42 155.286 11.42C154.46 11.42 153.82 11.7133 153.366 12.3C152.926 12.8867 152.706 13.7067 152.706 14.76V15.02C152.706 16.1133 152.973 16.9333 153.506 17.48C154.053 18.0133 154.82 18.28 155.806 18.28C156.38 18.28 156.913 18.2067 157.406 18.06C157.913 17.9 158.393 17.6467 158.846 17.3L159.586 18.98C159.106 19.3667 158.533 19.6667 157.866 19.88C157.2 20.0933 156.493 20.2 155.746 20.2ZM164.067 20L160.127 9.9H162.707L165.547 17.76H165.027L167.907 9.9H169.687L172.547 17.76H172.087L174.907 9.9H177.347L173.407 20H171.207L168.187 11.96H169.247L166.287 20H164.067Z" fill="#151517"/>
<path d="M9.25 22.4035H8.97103L8.73235 22.5479L2.51766 26.308C1.8512 26.7112 1 26.2313 1 25.4524V3C1 1.89543 1.89543 1 3 1H30C31.1046 1 32 1.89543 32 3V20.4035C32 21.5081 31.1046 22.4035 30 22.4035H9.25Z" stroke="#4C81DD" stroke-width="2"/>
<path d="M8 6L14 11L8 16" stroke="#4C81DD" stroke-width="2"/>
<line x1="17" y1="15" x2="25" y2="15" stroke="#4C81DD" stroke-width="2"/>
</svg>
